<svg width="40" height="40" viewBox="0 0 40 40" fill="none" xmlns="http://www.w3.org/2000/svg">
<path d="M0 19C0 8.50659 8.50659 0 19 0C29.4934 0 38 8.50659 38 19C38 29.4934 29.4934 38 19 38C8.50659 38 0 29.4934 0 19Z" fill="#0D274D"/>
<path d="M0 8.55C0 3.82797 3.82797 0 8.55 0H29.45C34.172 0 38 3.82797 38 8.55V29.45C38 34.172 34.172 38 29.45 38H8.55C3.82797 38 0 34.172 0 29.45V8.55Z" fill="#00BCEB"/>
<path fill-rule="evenodd" clip-rule="evenodd" d="M5.86891 14.5212C6.67108 12.1688 8.08765 10.1007 9.92734 8.50847C10.2205 8.46825 10.5098 8.43028 10.7953 8.39427C10.7953 10.0975 10.6544 11.8748 10.2317 13.8002C8.86374 13.9877 7.39535 14.2281 5.86891 14.5212ZM5.32984 21.3599C5.19837 20.5929 5.12988 19.8045 5.12988 19C5.12988 17.9705 5.24204 16.9672 5.45481 16.0017C6.98802 15.6755 8.45734 15.4166 9.80904 15.2812C9.52544 16.2182 9.21855 17.1307 8.91515 18.0327C8.69101 18.6992 8.46877 19.3599 8.25925 20.0207L8.18881 20.1688L7.97747 20.8352C7.48436 20.9463 6.99124 21.0389 6.49813 21.1315C6.1087 21.2046 5.71927 21.2777 5.32984 21.3599ZM7.38857 26.5893C6.62564 25.4245 6.03327 24.1378 5.64695 22.7649C6.32762 22.6177 6.97643 22.504 7.62525 22.3904C7.4561 23.6351 7.37721 25.0221 7.38857 26.5893ZM14.2648 32.0407C12.4184 31.3701 10.7548 30.3186 9.36896 28.9811C11.018 28.7343 12.5445 28.6109 13.8948 28.6109C13.984 29.6886 14.1013 30.8256 14.2648 32.0407ZM20.883 32.7432C20.2672 32.8268 19.6386 32.87 18.9999 32.87C17.888 32.87 16.8066 32.7391 15.7703 32.492C15.582 31.0836 15.4244 29.772 15.3742 28.6109C17.1353 28.6849 18.5442 28.9071 19.6009 29.3514C19.7715 29.4411 19.9421 29.5036 20.1284 29.5719C20.2498 29.6163 20.3777 29.6632 20.5167 29.7217C20.6132 30.6861 20.7429 31.6854 20.883 32.7432ZM25.3375 31.3407C24.3703 31.8384 23.337 32.2257 22.2543 32.4861C22.1763 31.8603 22.1075 31.2416 22.0403 30.6378C22.0255 30.5044 22.0108 30.3718 21.996 30.24C23.0561 30.6277 24.1765 31.0153 25.3375 31.3407ZM31.3312 25.3558C30.5742 26.8216 29.5634 28.1351 28.3571 29.2383C28.238 27.7357 28.1952 26.343 28.1952 25.1303C29.2516 25.289 30.2951 25.3661 31.3312 25.3558ZM32.8616 18.5166C32.8671 18.677 32.8699 18.8382 32.8699 19C32.8699 20.7232 32.5556 22.373 31.9813 23.8953C30.761 23.9661 29.5225 23.9121 28.2656 23.7233C28.4065 22.5385 28.5474 21.5758 28.8996 20.7612C29.1814 20.0207 29.4632 19.2801 29.6745 18.5396C30.7541 18.6207 31.8126 18.613 32.8616 18.5166ZM31.2665 12.5204C31.9937 13.8942 32.4968 15.4049 32.7273 17.0037C31.8909 17.0785 31.0455 17.094 30.1676 17.0585L30.1897 16.9851C30.5543 15.7715 31.0154 14.2373 31.2665 12.5204ZM25.0677 6.5242C26.8812 7.40786 28.4733 8.67529 29.7383 10.2208C28.2602 10.1175 26.7716 9.82957 25.166 9.35696C25.2026 8.39621 25.1633 7.45541 25.0677 6.5242ZM18.4739 5.13978C18.6484 5.13327 18.8238 5.12999 18.9999 5.12999C20.5904 5.12999 22.1184 5.39772 23.5413 5.89055C23.68 6.88177 23.7571 7.8837 23.7571 8.91264C22.5596 8.46832 21.4324 8.024 20.3053 7.57968L20.1644 7.50563C19.6713 7.28347 19.1782 7.13536 18.6851 7.06131C18.6416 6.4208 18.5712 5.78029 18.4739 5.13978ZM16.9896 5.27461C17.0881 5.79612 17.1676 6.31763 17.2058 6.83915C15.8516 6.69679 14.1719 6.69126 12.3546 6.82257C13.7683 6.04945 15.3315 5.51535 16.9896 5.27461ZM24.1094 15.7996C25.8 16.392 27.2794 16.7623 28.7587 16.9104C29.3927 14.985 29.8154 13.3559 30.0267 11.7267C28.4769 11.5786 26.8567 11.3564 25.0956 10.838C24.9547 12.3932 24.6025 14.0223 24.1094 15.7996ZM28.2656 18.3176L28.2656 18.3174C26.7863 18.1693 25.3069 17.7991 23.6867 17.2066C23.3345 18.3174 22.9118 19.5023 22.4891 20.6871L22.4891 20.6872C22.3482 21.0574 22.2073 21.4277 22.1369 21.872C23.5458 22.3904 25.166 22.9828 26.9272 23.3531C27.068 22.0942 27.2794 21.0574 27.6316 20.1688C27.8429 19.5023 28.0542 18.91 28.2656 18.3176ZM22.1731 28.7273C23.7048 29.2887 25.3556 29.8939 27.068 30.24C26.8567 28.2406 26.7863 26.4633 26.7863 24.9082C25.0251 24.5379 23.3345 24.0195 21.8551 23.4271C21.7142 24.8341 21.7142 26.6114 21.8551 28.6109C21.9605 28.6494 22.0665 28.6883 22.1731 28.7273ZM20.1644 14.3185C20.8689 14.6148 21.7847 14.985 22.7709 15.3553C23.264 13.578 23.5458 12.0229 23.6162 10.3937C22.2778 9.94939 21.0098 9.43102 19.7418 8.91264L19.6009 8.83859C19.4813 8.80716 19.3617 8.76239 19.2367 8.7156C19.0672 8.65215 18.8878 8.585 18.6851 8.54238C18.6851 10.2456 18.4738 11.9488 18.1215 13.7261C18.8964 13.8742 19.5304 14.0964 20.1644 14.3185ZM20.3392 15.9459C20.0782 15.8399 19.8303 15.7392 19.6009 15.6515C19.4609 15.6095 19.3096 15.5614 19.1501 15.5109C18.7478 15.3832 18.2938 15.2392 17.8398 15.1331C17.3855 16.8386 16.8117 18.4184 16.2835 19.8725C16.2383 19.9969 16.1935 20.1203 16.1491 20.2428C17.7693 20.3909 19.1078 20.6131 20.1644 21.0574L20.7984 21.2796C20.8689 20.8352 21.0098 20.465 21.1507 20.0947C21.5029 19.132 21.9256 17.9472 22.3482 16.6883C21.654 16.4797 20.9597 16.1978 20.3392 15.9459ZM20.2349 27.9814C20.2877 27.9999 20.3406 28.0184 20.3758 28.0184C20.3053 26.019 20.3053 24.3158 20.4462 22.9087L19.5304 22.5385C18.5442 22.0942 17.2058 21.872 15.5855 21.7979C15.3037 23.205 15.1629 24.9822 15.2333 27.1298C17.2058 27.1298 18.826 27.426 20.094 27.9444C20.1292 27.9444 20.1821 27.9629 20.2349 27.9814ZM11.6406 13.6521C13.5426 13.4299 15.2333 13.4299 16.7126 13.578C17.1353 11.7267 17.2762 10.0234 17.2058 8.32022C15.7969 8.09805 14.1062 8.09805 12.1337 8.24616C12.2042 10.0234 11.9928 11.8007 11.6406 13.6521ZM14.7402 19.9466C15.3037 18.3915 15.8673 16.7623 16.3604 14.985C14.8811 14.911 13.1904 14.911 11.3588 15.1331C10.9681 16.6586 10.4448 18.1376 9.96396 19.4964C9.8379 19.8526 9.71476 20.2006 9.5977 20.539L9.52726 20.6131C11.3588 20.3909 13.12 20.2428 14.5993 20.2428C14.6697 20.2428 14.6697 20.1688 14.6697 20.1688L14.7402 19.9466ZM8.82281 27.5741C10.6544 27.352 12.3451 27.2038 13.8948 27.1298C13.8244 24.9822 13.8948 23.205 14.2471 21.7979C12.6973 21.7979 11.0066 21.946 9.10459 22.2423C8.82281 23.6493 8.75237 25.4266 8.82281 27.5741Z" fill="#0D274D"/>
</svg>
